# Blender v2.78 (sub 0) OBJ File: '19.blend'
# www.blender.org
mtllib Woods_01.mtl
o Circle_Circle.002
v 0.241076 -0.009769 2.240235
v -0.126692 -0.009769 2.392569
v -0.279027 -0.009769 2.760337
v -0.126692 -0.009769 3.128105
v 0.241076 -0.009769 3.280440
v 0.608844 -0.009769 3.128105
v 0.761178 -0.009769 2.760337
v 0.608844 -0.009769 2.392569
v 0.241076 1.502240 2.326226
v -0.065887 1.502240 2.453374
v -0.193035 1.502240 2.760337
v -0.065887 1.502240 3.067300
v 0.241076 1.502240 3.194448
v 0.548038 1.502240 3.067300
v 0.675187 1.502240 2.760337
v 0.548038 1.502240 2.453374
v 0.241076 1.502241 0.265534
v -1.523016 1.502241 0.996245
v -2.253728 1.502241 2.760337
v -1.523016 1.502241 4.524429
v 0.241076 1.502241 5.255140
v 2.005168 1.502241 4.524428
v 2.735879 1.502241 2.760337
v 2.005168 1.502241 0.996245
v 0.241076 3.251706 1.460554
v -0.711148 3.237169 1.854710
v -1.105572 3.202075 2.806287
v -0.711148 3.166980 3.757864
v 0.241076 3.152443 4.152020
v 1.193299 3.166980 3.757863
v 1.587723 3.202075 2.806287
v 1.193299 3.237169 1.854710
v 0.241076 3.285155 0.175846
v -1.592426 3.223811 0.932826
v -2.351888 3.075714 2.760337
v -1.592426 2.927617 4.587849
v 0.241076 2.866273 5.344829
v 2.074578 2.927617 4.587848
v 2.834039 3.075714 2.760337
v 2.074578 3.223811 0.932826
v 0.241076 4.937952 1.291025
v -0.775434 4.996984 1.707918
v -1.196486 5.139498 2.714388
v -0.775434 5.282012 3.720858
v 0.241076 5.341044 4.137751
v 1.257585 5.282012 3.720857
v 1.678637 5.139498 2.714388
v 1.257585 4.996984 1.707918
v 0.241076 4.907537 0.406546
v -1.401925 4.948560 1.085862
v -2.082479 5.047599 2.725875
v -1.401925 5.146638 4.365889
v 0.241076 5.187662 5.045204
v 1.884077 5.146638 4.365888
v 2.564630 5.047599 2.725875
v 1.884077 4.948560 1.085862
v 0.246910 7.435672 1.790513
v -0.413951 7.440989 2.065481
v -0.686782 7.455003 2.727101
v -0.411762 7.469502 3.387803
v 0.250005 7.475996 3.660557
v 0.910866 7.470677 3.385587
v 1.183696 7.456665 2.723968
v 0.908677 7.442165 2.063267
v 0.249763 7.451773 1.108631
v -0.923319 7.422901 1.586481
v -1.414315 7.346229 2.751961
v -0.935604 7.266670 3.922347
v 0.232389 7.230829 4.412043
v 1.405471 7.259701 3.934192
v 1.896466 7.336373 2.768713
v 1.417756 7.415932 1.598327
v 0.241076 9.652340 2.760337
v 0.241076 -0.009769 2.760337
v 3.440967 -0.022938 -3.328198
v 3.073199 -0.022938 -3.175864
v 2.920864 -0.022938 -2.808095
v 3.073199 -0.022938 -2.440327
v 3.440967 -0.022938 -2.287993
v 3.808734 -0.022938 -2.440327
v 3.961069 -0.022938 -2.808095
v 3.808734 -0.022938 -3.175864
v 3.440967 1.672616 -3.242207
v 3.134004 1.672616 -3.115058
v 3.006856 1.672616 -2.808095
v 3.134004 1.672616 -2.501132
v 3.440967 1.672616 -2.373984
v 3.747929 1.672616 -2.501132
v 3.875077 1.672616 -2.808095
v 3.747929 1.672616 -3.115058
v 3.440967 1.672617 -5.302899
v 1.676874 1.672617 -4.572187
v 0.946163 1.672617 -2.808095
v 1.676874 1.672617 -1.044002
v 3.440967 1.672617 -0.313291
v 5.205059 1.672617 -1.044003
v 5.935770 1.672617 -2.808095
v 5.205059 1.672617 -4.572187
v 3.440967 3.634451 -4.107879
v 2.488743 3.618150 -3.713723
v 2.094319 3.578794 -2.762146
v 2.488743 3.539440 -1.810569
v 3.440967 3.523139 -1.416413
v 4.393190 3.539440 -1.810570
v 4.787614 3.578794 -2.762146
v 4.393190 3.618150 -3.713723
v 3.440967 3.671961 -5.392586
v 1.607464 3.603170 -4.635607
v 0.848003 3.437095 -2.808095
v 1.607464 3.271020 -0.980583
v 3.440967 3.202230 -0.223604
v 5.274468 3.271020 -0.980585
v 6.033931 3.437095 -2.808095
v 5.274468 3.603170 -4.635607
v 3.440967 5.525393 -4.277408
v 2.424457 5.591590 -3.860514
v 2.003405 5.751404 -2.854045
v 2.424457 5.911219 -1.847575
v 3.440967 5.977417 -1.430681
v 4.457476 5.911219 -1.847575
v 4.878528 5.751404 -2.854045
v 4.457476 5.591590 -3.860514
v 3.440967 5.491285 -5.161886
v 1.797966 5.537289 -4.482572
v 1.117412 5.648350 -2.842557
v 1.797966 5.759411 -1.202544
v 3.440967 5.805415 -0.523228
v 5.083967 5.759411 -1.202545
v 5.764520 5.648350 -2.842557
v 5.083967 5.537289 -4.482572
v 3.446801 8.326314 -3.777920
v 2.785940 8.332278 -3.502951
v 2.513109 8.347992 -2.841332
v 2.788129 8.364250 -2.180630
v 3.449896 8.371532 -1.907876
v 4.110756 8.365568 -2.182845
v 4.383587 8.349854 -2.844464
v 4.108568 8.333595 -3.505166
v 3.449653 8.344368 -4.459801
v 2.276571 8.311993 -3.981951
v 1.785576 8.226013 -2.816472
v 2.264287 8.136796 -1.646085
v 3.432280 8.096605 -1.156389
v 4.605361 8.128982 -1.634240
v 5.096357 8.214961 -2.799719
v 4.617647 8.304177 -3.970105
v 3.440967 10.812065 -2.808095
v 3.440967 -0.022938 -2.808095
v 6.334641 -0.011495 1.391355
v 6.043551 -0.011495 1.511929
v 5.922978 -0.011495 1.803020
v 6.043551 -0.011495 2.094111
v 6.334642 -0.011495 2.214684
v 6.625733 -0.011495 2.094110
v 6.746306 -0.011495 1.803020
v 6.625733 -0.011495 1.511929
v 6.334641 1.330546 1.459418
v 6.091680 1.330546 1.560057
v 5.991041 1.330546 1.803020
v 6.091680 1.330546 2.045983
v 6.334642 1.330546 2.146622
v 6.577605 1.330546 2.045983
v 6.678243 1.330546 1.803020
v 6.577605 1.330546 1.560057
v 6.334641 1.330547 -0.171633
v 4.938352 1.330547 0.406729
v 4.359989 1.330547 1.803020
v 4.938352 1.330547 3.199311
v 6.334642 1.330547 3.777673
v 7.730932 1.330547 3.199310
v 8.309296 1.330547 1.803020
v 7.730932 1.330547 0.406729
v 6.334641 2.883352 0.774233
v 5.580952 2.870450 1.086210
v 5.268762 2.839299 1.839389
v 5.580952 2.808150 2.592568
v 6.334642 2.795248 2.904545
v 7.088333 2.808150 2.592568
v 7.400522 2.839299 1.839389
v 7.088333 2.870450 1.086210
v 6.334641 2.913041 -0.242622
v 4.883414 2.858593 0.356533
v 4.282295 2.727143 1.803020
v 4.883414 2.595694 3.249507
v 6.334642 2.541246 3.848661
v 7.785870 2.595694 3.249506
v 8.386990 2.727143 1.803020
v 7.785870 2.858593 0.356533
v 6.334641 4.380044 0.640050
v 5.530069 4.432440 0.970024
v 5.196803 4.558934 1.766651
v 5.530069 4.685429 2.563278
v 6.334642 4.737825 2.893252
v 7.139215 4.685429 2.563277
v 7.472481 4.558934 1.766651
v 7.139215 4.432440 0.970024
v 6.334641 4.353048 -0.060020
v 5.034196 4.389460 0.477662
v 4.495534 4.477365 1.775743
v 5.034196 4.565272 3.073824
v 6.334642 4.601684 3.611507
v 7.635088 4.565272 3.073823
v 8.173751 4.477365 1.775743
v 7.635088 4.389460 0.477662
v 6.339260 6.596992 1.035398
v 5.816184 6.601712 1.253037
v 5.600237 6.614150 1.776713
v 5.817917 6.627018 2.299663
v 6.341710 6.632782 2.515549
v 6.864785 6.628061 2.297910
v 7.080732 6.615624 1.774234
v 6.863053 6.602755 1.251284
v 6.341517 6.611282 0.495684
v 5.413016 6.585656 0.873906
v 5.024390 6.517603 1.796390
v 5.403292 6.446987 2.722758
v 6.327767 6.415174 3.110356
v 7.256269 6.440802 2.732134
v 7.644894 6.508855 1.809650
v 7.265992 6.579470 0.883282
v 6.334641 8.564480 1.803020
v 6.334642 -0.011495 1.803020
v -3.775563 -0.034817 -1.146207
v -4.021524 -0.034817 -1.044328
v -4.123404 -0.034817 -0.798367
v -4.021524 -0.034817 -0.552406
v -3.775563 -0.034817 -0.450526
v -3.529603 -0.034817 -0.552406
v -3.427722 -0.034817 -0.798367
v -3.529603 -0.034817 -1.044328
v -3.775563 1.099157 -1.088697
v -3.980857 1.099157 -1.003661
v -4.065893 1.099157 -0.798367
v -3.980857 1.099157 -0.593072
v -3.775563 1.099157 -0.508036
v -3.570268 1.099157 -0.593072
v -3.485234 1.099157 -0.798367
v -3.570268 1.099157 -1.003661
v -3.775563 1.099158 -2.466873
v -4.955375 1.099158 -1.978179
v -5.444069 1.099158 -0.798367
v -4.955375 1.099158 0.381446
v -3.775563 1.099158 0.870140
v -2.595750 1.099158 0.381445
v -2.107056 1.099158 -0.798367
v -2.595750 1.099158 -1.978179
v -3.775563 2.411218 -1.667652
v -4.412403 2.400316 -1.404044
v -4.676190 2.373995 -0.767636
v -4.412403 2.347675 -0.131228
v -3.775563 2.336773 0.132380
v -3.138723 2.347675 -0.131229
v -2.874935 2.373995 -0.767636
v -3.138723 2.400316 -1.404044
v -3.775563 2.436304 -2.526856
v -5.001795 2.390297 -2.020593
v -5.509717 2.279228 -0.798367
v -5.001795 2.168158 0.423860
v -3.775563 2.122152 0.930123
v -2.549331 2.168158 0.423859
v -2.041408 2.279228 -0.798367
v -2.549331 2.390297 -2.020593
v -3.775563 3.675865 -1.781032
v -4.455397 3.720138 -1.502217
v -4.736994 3.827021 -0.829097
v -4.455397 3.933904 -0.155978
v -3.775563 3.978176 0.122838
v -3.095728 3.933904 -0.155978
v -2.814132 3.827021 -0.829097
v -3.095728 3.720138 -1.502217
v -3.775563 3.653055 -2.372565
v -4.874390 3.683822 -1.918244
v -5.329540 3.758099 -0.821415
v -4.874390 3.832376 0.275414
v -3.775563 3.863143 0.729736
v -2.676735 3.832376 0.275414
v -2.221586 3.758099 -0.821415
v -2.676735 3.683822 -1.918244
v -3.771661 5.549102 -1.446978
v -4.213640 5.553090 -1.263081
v -4.396107 5.563600 -0.820595
v -4.212175 5.574473 -0.378722
v -3.769591 5.579343 -0.196306
v -3.327613 5.575355 -0.380204
v -3.145144 5.564845 -0.822690
v -3.329076 5.553971 -1.264562
v -3.769753 5.561176 -1.903015
v -4.554301 5.539524 -1.583433
v -4.882677 5.482021 -0.803969
v -4.562518 5.422353 -0.021223
v -3.781372 5.395473 0.306283
v -2.996824 5.417127 -0.013301
v -2.668450 5.474629 -0.792765
v -2.988607 5.534296 -1.575510
v -3.775563 7.211554 -0.798367
v -3.775563 -0.034817 -0.798367
vn 0.0000 -1.0000 -0.0000
vn -0.7849 0.5317 -0.3183
vn 0.7849 0.5317 -0.3183
vn 0.3235 0.5237 0.7881
vn -0.7828 0.5269 0.3311
vn -0.3256 0.5352 -0.7794
vn 0.3256 0.5352 -0.7794
vn 0.7828 0.5269 0.3311
vn -0.3235 0.5237 0.7881
vn -0.0201 -0.9997 -0.0171
vn -0.1261 -0.9851 -0.1173
vn 0.0660 -0.9724 -0.2239
vn 0.0802 -0.9963 -0.0324
vn -0.0802 -0.9963 -0.0324
vn -0.0660 -0.9724 -0.2239
vn 0.1261 -0.9851 -0.1173
vn 0.0201 -0.9997 -0.0171
vn -0.8281 0.4412 0.3458
vn -0.3268 0.5151 -0.7924
vn 0.3268 0.5151 -0.7924
vn 0.8281 0.4412 0.3458
vn -0.3455 0.4191 0.8396
vn -0.8100 0.4803 -0.3365
vn 0.8100 0.4803 -0.3365
vn 0.3455 0.4191 0.8396
vn -0.0475 -0.9927 0.1104
vn -0.0965 -0.9848 -0.1442
vn 0.1587 -0.9870 0.0240
vn -0.0137 -0.9982 0.0579
vn 0.0137 -0.9982 0.0579
vn -0.1587 -0.9870 0.0240
vn 0.0965 -0.9848 -0.1442
vn 0.0475 -0.9927 0.1104
vn -0.3422 0.4862 0.8041
vn -0.8094 0.4654 -0.3581
vn 0.8111 0.4614 -0.3596
vn 0.3431 0.4844 0.8048
vn -0.8190 0.4785 0.3166
vn -0.3330 0.4548 -0.8260
vn 0.3324 0.4531 -0.8272
vn 0.8213 0.4743 0.3169
vn -0.0166 -0.9999 0.0014
vn -0.2074 -0.9709 -0.1200
vn 0.1046 -0.9520 -0.2876
vn 0.0993 -0.9950 0.0074
vn -0.1150 -0.9933 0.0120
vn -0.1083 -0.9498 -0.2935
vn 0.1919 -0.9748 -0.1136
vn 0.0115 -0.9999 -0.0033
vn 0.3073 0.5355 0.7867
vn -0.7620 0.5457 0.3488
vn -0.3226 0.5674 -0.7576
vn 0.3333 0.5668 -0.7534
vn 0.7597 0.5443 0.3558
vn -0.3124 0.5361 0.7843
vn -0.7768 0.5587 -0.2905
vn 0.7811 0.5573 -0.2816
vn -0.8086 0.4885 -0.3279
vn 0.8086 0.4885 -0.3279
vn 0.3330 0.4807 0.8112
vn -0.8060 0.4838 0.3410
vn -0.3356 0.4919 -0.8033
vn 0.3356 0.4919 -0.8033
vn 0.8060 0.4838 0.3410
vn -0.3330 0.4807 0.8112
vn -0.0226 -0.9996 -0.0192
vn -0.1409 -0.9813 -0.1310
vn 0.0735 -0.9656 -0.2493
vn 0.0898 -0.9953 -0.0363
vn -0.0898 -0.9953 -0.0363
vn -0.0735 -0.9656 -0.2493
vn 0.1409 -0.9813 -0.1310
vn 0.0226 -0.9996 -0.0192
vn -0.8451 0.4015 0.3529
vn -0.3360 0.4724 -0.8148
vn 0.3360 0.4724 -0.8148
vn 0.8451 0.4015 0.3529
vn -0.3519 0.3806 0.8552
vn -0.8298 0.4388 -0.3447
vn 0.8298 0.4388 -0.3447
vn 0.3519 0.3806 0.8552
vn -0.0532 -0.9909 0.1236
vn -0.1078 -0.9810 -0.1611
vn 0.1774 -0.9838 0.0268
vn -0.0153 -0.9978 0.0649
vn 0.0153 -0.9978 0.0649
vn -0.1774 -0.9838 0.0268
vn 0.1078 -0.9810 -0.1611
vn 0.0532 -0.9909 0.1236
vn -0.3508 0.4444 0.8243
vn -0.8280 0.4246 -0.3663
vn 0.8293 0.4207 -0.3677
vn 0.3516 0.4427 0.8248
vn -0.8389 0.4371 0.3243
vn -0.3403 0.4144 -0.8441
vn 0.3396 0.4129 -0.8451
vn 0.8409 0.4330 0.3245
vn -0.0186 -0.9998 0.0016
vn -0.2309 -0.9638 -0.1336
vn 0.1159 -0.9407 -0.3187
vn 0.1113 -0.9938 0.0083
vn -0.1287 -0.9916 0.0135
vn -0.1199 -0.9381 -0.3251
vn 0.2139 -0.9686 -0.1266
vn 0.0129 -0.9999 -0.0037
vn 0.3167 0.4922 0.8108
vn -0.7863 0.5022 0.3599
vn -0.3338 0.5235 -0.7839
vn 0.3448 0.5230 -0.7795
vn 0.7838 0.5008 0.3672
vn -0.3220 0.4928 0.8084
vn -0.8029 0.5149 -0.3003
vn 0.8072 0.5136 -0.2910
vn -0.3822 0.0525 0.9226
vn -0.9226 0.0525 -0.3822
vn 0.9226 0.0525 -0.3822
vn 0.3822 0.0525 0.9226
vn -0.9226 0.0525 0.3822
vn -0.3822 0.0525 -0.9226
vn 0.3822 0.0525 -0.9226
vn 0.9226 0.0525 0.3822
vn -0.3823 0.0468 0.9229
vn -0.9229 0.0468 -0.3823
vn 0.9229 0.0468 -0.3823
vn 0.3823 0.0468 0.9229
vn -0.9229 0.0468 0.3823
vn -0.3823 0.0468 -0.9229
vn 0.3823 0.0468 -0.9229
vn 0.9229 0.0468 0.3823
usemtl 4CAF50
s off
f 15//1 16//1 24//1 23//1
f 13//1 14//1 22//1 21//1
f 11//1 12//1 20//1 19//1
f 9//1 10//1 18//1 17//1
f 16//1 9//1 17//1 24//1
f 14//1 15//1 23//1 22//1
f 12//1 13//1 21//1 20//1
f 10//1 11//1 19//1 18//1
f 18//2 19//2 27//2 26//2
f 23//3 24//3 32//3 31//3
f 21//4 22//4 30//4 29//4
f 19//5 20//5 28//5 27//5
f 17//6 18//6 26//6 25//6
f 24//7 17//7 25//7 32//7
f 22//8 23//8 31//8 30//8
f 20//9 21//9 29//9 28//9
f 32//10 25//10 33//10 40//10
f 30//11 31//11 39//11 38//11
f 28//12 29//12 37//12 36//12
f 26//13 27//13 35//13 34//13
f 31//14 32//14 40//14 39//14
f 29//15 30//15 38//15 37//15
f 27//16 28//16 36//16 35//16
f 25//17 26//17 34//17 33//17
f 35//18 36//18 44//18 43//18
f 33//19 34//19 42//19 41//19
f 40//20 33//20 41//20 48//20
f 38//21 39//21 47//21 46//21
f 36//22 37//22 45//22 44//22
f 34//23 35//23 43//23 42//23
f 39//24 40//24 48//24 47//24
f 37//25 38//25 46//25 45//25
f 47//26 48//26 56//26 55//26
f 45//27 46//27 54//27 53//27
f 43//28 44//28 52//28 51//28
f 41//29 42//29 50//29 49//29
f 48//30 41//30 49//30 56//30
f 46//31 47//31 55//31 54//31
f 44//32 45//32 53//32 52//32
f 42//33 43//33 51//33 50//33
f 52//34 53//34 61//34 60//34
f 50//35 51//35 59//35 58//35
f 55//36 56//36 64//36 63//36
f 53//37 54//37 62//37 61//37
f 51//38 52//38 60//38 59//38
f 49//39 50//39 58//39 57//39
f 56//40 49//40 57//40 64//40
f 54//41 55//41 63//41 62//41
f 64//42 57//42 65//42 72//42
f 62//43 63//43 71//43 70//43
f 60//44 61//44 69//44 68//44
f 58//45 59//45 67//45 66//45
f 63//46 64//46 72//46 71//46
f 61//47 62//47 70//47 69//47
f 59//48 60//48 68//48 67//48
f 57//49 58//49 66//49 65//49
f 69//50 70//50 73//50
f 67//51 68//51 73//51
f 65//52 66//52 73//52
f 72//53 65//53 73//53
f 70//54 71//54 73//54
f 68//55 69//55 73//55
f 66//56 67//56 73//56
f 71//57 72//57 73//57
f 89//1 90//1 98//1 97//1
f 87//1 88//1 96//1 95//1
f 85//1 86//1 94//1 93//1
f 83//1 84//1 92//1 91//1
f 90//1 83//1 91//1 98//1
f 88//1 89//1 97//1 96//1
f 86//1 87//1 95//1 94//1
f 84//1 85//1 93//1 92//1
f 92//58 93//58 101//58 100//58
f 97//59 98//59 106//59 105//59
f 95//60 96//60 104//60 103//60
f 93//61 94//61 102//61 101//61
f 91//62 92//62 100//62 99//62
f 98//63 91//63 99//63 106//63
f 96//64 97//64 105//64 104//64
f 94//65 95//65 103//65 102//65
f 106//66 99//66 107//66 114//66
f 104//67 105//67 113//67 112//67
f 102//68 103//68 111//68 110//68
f 100//69 101//69 109//69 108//69
f 105//70 106//70 114//70 113//70
f 103//71 104//71 112//71 111//71
f 101//72 102//72 110//72 109//72
f 99//73 100//73 108//73 107//73
f 109//74 110//74 118//74 117//74
f 107//75 108//75 116//75 115//75
f 114//76 107//76 115//76 122//76
f 112//77 113//77 121//77 120//77
f 110//78 111//78 119//78 118//78
f 108//79 109//79 117//79 116//79
f 113//80 114//80 122//80 121//80
f 111//81 112//81 120//81 119//81
f 121//82 122//82 130//82 129//82
f 119//83 120//83 128//83 127//83
f 117//84 118//84 126//84 125//84
f 115//85 116//85 124//85 123//85
f 122//86 115//86 123//86 130//86
f 120//87 121//87 129//87 128//87
f 118//88 119//88 127//88 126//88
f 116//89 117//89 125//89 124//89
f 126//90 127//90 135//90 134//90
f 124//91 125//91 133//91 132//91
f 129//92 130//92 138//92 137//92
f 127//93 128//93 136//93 135//93
f 125//94 126//94 134//94 133//94
f 123//95 124//95 132//95 131//95
f 130//96 123//96 131//96 138//96
f 128//97 129//97 137//97 136//97
f 138//98 131//98 139//98 146//98
f 136//99 137//99 145//99 144//99
f 134//100 135//100 143//100 142//100
f 132//101 133//101 141//101 140//101
f 137//102 138//102 146//102 145//102
f 135//103 136//103 144//103 143//103
f 133//104 134//104 142//104 141//104
f 131//105 132//105 140//105 139//105
f 143//106 144//106 147//106
f 141//107 142//107 147//107
f 139//108 140//108 147//108
f 146//109 139//109 147//109
f 144//110 145//110 147//110
f 142//111 143//111 147//111
f 140//112 141//112 147//112
f 145//113 146//113 147//113
f 163//1 164//1 172//1 171//1
f 161//1 162//1 170//1 169//1
f 159//1 160//1 168//1 167//1
f 157//1 158//1 166//1 165//1
f 164//1 157//1 165//1 172//1
f 162//1 163//1 171//1 170//1
f 160//1 161//1 169//1 168//1
f 158//1 159//1 167//1 166//1
f 166//58 167//58 175//58 174//58
f 171//59 172//59 180//59 179//59
f 169//60 170//60 178//60 177//60
f 167//61 168//61 176//61 175//61
f 165//62 166//62 174//62 173//62
f 172//63 165//63 173//63 180//63
f 170//64 171//64 179//64 178//64
f 168//65 169//65 177//65 176//65
f 180//66 173//66 181//66 188//66
f 178//67 179//67 187//67 186//67
f 176//68 177//68 185//68 184//68
f 174//69 175//69 183//69 182//69
f 179//70 180//70 188//70 187//70
f 177//71 178//71 186//71 185//71
f 175//72 176//72 184//72 183//72
f 173//73 174//73 182//73 181//73
f 183//74 184//74 192//74 191//74
f 181//75 182//75 190//75 189//75
f 188//76 181//76 189//76 196//76
f 186//77 187//77 195//77 194//77
f 184//78 185//78 193//78 192//78
f 182//79 183//79 191//79 190//79
f 187//80 188//80 196//80 195//80
f 185//81 186//81 194//81 193//81
f 195//82 196//82 204//82 203//82
f 193//83 194//83 202//83 201//83
f 191//84 192//84 200//84 199//84
f 189//85 190//85 198//85 197//85
f 196//86 189//86 197//86 204//86
f 194//87 195//87 203//87 202//87
f 192//88 193//88 201//88 200//88
f 190//89 191//89 199//89 198//89
f 200//90 201//90 209//90 208//90
f 198//91 199//91 207//91 206//91
f 203//92 204//92 212//92 211//92
f 201//93 202//93 210//93 209//93
f 199//94 200//94 208//94 207//94
f 197//95 198//95 206//95 205//95
f 204//96 197//96 205//96 212//96
f 202//97 203//97 211//97 210//97
f 212//98 205//98 213//98 220//98
f 210//99 211//99 219//99 218//99
f 208//100 209//100 217//100 216//100
f 206//101 207//101 215//101 214//101
f 211//102 212//102 220//102 219//102
f 209//103 210//103 218//103 217//103
f 207//104 208//104 216//104 215//104
f 205//105 206//105 214//105 213//105
f 217//106 218//106 221//106
f 215//107 216//107 221//107
f 213//108 214//108 221//108
f 220//109 213//109 221//109
f 218//110 219//110 221//110
f 216//111 217//111 221//111
f 214//112 215//112 221//112
f 219//113 220//113 221//113
f 237//1 238//1 246//1 245//1
f 235//1 236//1 244//1 243//1
f 233//1 234//1 242//1 241//1
f 231//1 232//1 240//1 239//1
f 238//1 231//1 239//1 246//1
f 236//1 237//1 245//1 244//1
f 234//1 235//1 243//1 242//1
f 232//1 233//1 241//1 240//1
f 240//58 241//58 249//58 248//58
f 245//59 246//59 254//59 253//59
f 243//60 244//60 252//60 251//60
f 241//61 242//61 250//61 249//61
f 239//62 240//62 248//62 247//62
f 246//63 239//63 247//63 254//63
f 244//64 245//64 253//64 252//64
f 242//65 243//65 251//65 250//65
f 254//66 247//66 255//66 262//66
f 252//67 253//67 261//67 260//67
f 250//68 251//68 259//68 258//68
f 248//69 249//69 257//69 256//69
f 253//70 254//70 262//70 261//70
f 251//71 252//71 260//71 259//71
f 249//72 250//72 258//72 257//72
f 247//73 248//73 256//73 255//73
f 257//74 258//74 266//74 265//74
f 255//75 256//75 264//75 263//75
f 262//76 255//76 263//76 270//76
f 260//77 261//77 269//77 268//77
f 258//78 259//78 267//78 266//78
f 256//79 257//79 265//79 264//79
f 261//80 262//80 270//80 269//80
f 259//81 260//81 268//81 267//81
f 269//82 270//82 278//82 277//82
f 267//83 268//83 276//83 275//83
f 265//84 266//84 274//84 273//84
f 263//85 264//85 272//85 271//85
f 270//86 263//86 271//86 278//86
f 268//87 269//87 277//87 276//87
f 266//88 267//88 275//88 274//88
f 264//89 265//89 273//89 272//89
f 274//90 275//90 283//90 282//90
f 272//91 273//91 281//91 280//91
f 277//92 278//92 286//92 285//92
f 275//93 276//93 284//93 283//93
f 273//94 274//94 282//94 281//94
f 271//95 272//95 280//95 279//95
f 278//96 271//96 279//96 286//96
f 276//97 277//97 285//97 284//97
f 286//98 279//98 287//98 294//98
f 284//99 285//99 293//99 292//99
f 282//100 283//100 291//100 290//100
f 280//101 281//101 289//101 288//101
f 285//102 286//102 294//102 293//102
f 283//103 284//103 292//103 291//103
f 281//104 282//104 290//104 289//104
f 279//105 280//105 288//105 287//105
f 291//106 292//106 295//106
f 289//107 290//107 295//107
f 287//108 288//108 295//108
f 294//109 287//109 295//109
f 292//110 293//110 295//110
f 290//111 291//111 295//111
f 288//112 289//112 295//112
f 293//113 294//113 295//113
usemtl 795548
f 4//114 5//114 13//114 12//114
f 2//115 3//115 11//115 10//115
f 7//116 8//116 16//116 15//116
f 5//117 6//117 14//117 13//117
f 3//118 4//118 12//118 11//118
f 1//119 2//119 10//119 9//119
f 8//120 1//120 9//120 16//120
f 6//121 7//121 15//121 14//121
f 5//1 4//1 74//1
f 3//1 2//1 74//1
f 8//1 7//1 74//1
f 6//1 5//1 74//1
f 4//1 3//1 74//1
f 2//1 1//1 74//1
f 1//1 8//1 74//1
f 7//1 6//1 74//1
f 78//122 79//122 87//122 86//122
f 76//123 77//123 85//123 84//123
f 81//124 82//124 90//124 89//124
f 79//125 80//125 88//125 87//125
f 77//126 78//126 86//126 85//126
f 75//127 76//127 84//127 83//127
f 82//128 75//128 83//128 90//128
f 80//129 81//129 89//129 88//129
f 79//1 78//1 148//1
f 77//1 76//1 148//1
f 82//1 81//1 148//1
f 80//1 79//1 148//1
f 78//1 77//1 148//1
f 76//1 75//1 148//1
f 75//1 82//1 148//1
f 81//1 80//1 148//1
f 152//122 153//122 161//122 160//122
f 150//123 151//123 159//123 158//123
f 155//124 156//124 164//124 163//124
f 153//125 154//125 162//125 161//125
f 151//126 152//126 160//126 159//126
f 149//127 150//127 158//127 157//127
f 156//128 149//128 157//128 164//128
f 154//129 155//129 163//129 162//129
f 153//1 152//1 222//1
f 151//1 150//1 222//1
f 156//1 155//1 222//1
f 154//1 153//1 222//1
f 152//1 151//1 222//1
f 150//1 149//1 222//1
f 149//1 156//1 222//1
f 155//1 154//1 222//1
f 226//122 227//122 235//122 234//122
f 224//123 225//123 233//123 232//123
f 229//124 230//124 238//124 237//124
f 227//125 228//125 236//125 235//125
f 225//126 226//126 234//126 233//126
f 223//127 224//127 232//127 231//127
f 230//128 223//128 231//128 238//128
f 228//129 229//129 237//129 236//129
f 227//1 226//1 296//1
f 225//1 224//1 296//1
f 230//1 229//1 296//1
f 228//1 227//1 296//1
f 226//1 225//1 296//1
f 224//1 223//1 296//1
f 223//1 230//1 296//1
f 229//1 228//1 296//1
